<svg width="79" height="60" xmlns="http://www.w3.org/2000/svg"><g fill="none" fill-rule="evenodd">
<path d="M49 49H31c-.5651752 0-1 .448-1 1s.4348248 1 1 1h18c.5651752 0 1-.448 1-1s-.4348248-1-1-1zm30 5l-6-9V3c.1829024-1.56387097-1.2506585-3-3-3H9C7.24680488 0 5.81517073 1.43612903 6 3v42l-6 9c.05202439.2012903 0 .3832258 0 1v4c0 .5683871.42968293 1 1 1h77c.5683902 0 1-.4316129 1-1v-4c0-.6167742-.0539512-.7987097 0-1zM8 2.97674419C8 2.55936364 8.56190274 2 8.984375 2h61.03125C70.436186 2 71 2.55936364 71 2.97674419V44H8V2.97674419zM8 46h63l5 7H3l5-7zM2 58h75v-3H2v3z" fill="#7A99AC"/>
<path fill="#7A99AC" d="M56.1276774 27.0961935h10.6451613v-1.9354838H56.1276774z"/>
<path d="M17.4185806 21.290129c1.6045162 0 2.9032259 1.3006452 2.9032259 2.9032258 0 1.6045162-1.2987097 2.9032258-2.9032259 2.9032258-1.6025806 0-2.9032258-1.2987096-2.9032258-2.9032258 0-1.6025806 1.3006452-2.9032258 2.9032258-2.9032258M28.0637419 21.290129c1.6045162 0 2.9032258 1.3006452 2.9032258 2.9032258 0 1.6045162-1.2987096 2.9032258-2.9032258 2.9032258-1.6025806 0-2.9032258-1.2987096-2.9032258-2.9032258 0-1.6025806 1.3006452-2.9032258 2.9032258-2.9032258M38.7089032 21.290129c1.6045162 0 2.9032258 1.3006452 2.9032258 2.9032258 0 1.6045162-1.2987096 2.9032258-2.9032258 2.9032258-1.6025806 0-2.9032258-1.2987096-2.9032258-2.9032258 0-1.6025806 1.3006452-2.9032258 2.9032258-2.9032258M49.3540645 21.290129c1.6045161 0 2.9032258 1.3006452 2.9032258 2.9032258 0 1.6045162-1.2987097 2.9032258-2.9032258 2.9032258-1.6025806 0-2.9032258-1.2987096-2.9032258-2.9032258 0-1.6025806 1.3006452-2.9032258 2.9032258-2.9032258" fill="#047DBA"/>
</g></svg>